<?xml version="1.0" encoding="UTF-8" standalone="no"?>
<!-- Created with Inkscape (http://www.inkscape.org/) -->

<svg
   version="1.1"
   id="svg1"
   width="336"
   height="192"
   viewBox="0 0 336 192"
   sodipodi:docname="NorthlandComputersLogoOL-2016.pdf"
   xmlns:inkscape="http://www.inkscape.org/namespaces/inkscape"
   xmlns:sodipodi="http://sodipodi.sourceforge.net/DTD/sodipodi-0.dtd"
   xmlns="http://www.w3.org/2000/svg"
   xmlns:svg="http://www.w3.org/2000/svg">
  <defs
     id="defs1">
    <clipPath
       clipPathUnits="userSpaceOnUse"
       id="clipPath23">
      <path
         d="M 0,144 H 252 V 0 H 0 Z"
         transform="translate(-73.169402,-97.709502)"
         id="path23" />
    </clipPath>
    <clipPath
       clipPathUnits="userSpaceOnUse"
       id="clipPath25">
      <path
         d="M 0,144 H 252 V 0 H 0 Z"
         transform="translate(-86.362802,-103.1338)"
         id="path25" />
    </clipPath>
    <clipPath
       clipPathUnits="userSpaceOnUse"
       id="clipPath27">
      <path
         d="M 0,144 H 252 V 0 H 0 Z"
         transform="translate(-99.1099,-102.9429)"
         id="path27" />
    </clipPath>
    <clipPath
       clipPathUnits="userSpaceOnUse"
       id="clipPath29">
      <path
         d="M 0,144 H 252 V 0 H 0 Z"
         transform="translate(-119.7241,-102.8955)"
         id="path29" />
    </clipPath>
    <clipPath
       clipPathUnits="userSpaceOnUse"
       id="clipPath31">
      <path
         d="M 0,144 H 252 V 0 H 0 Z"
         transform="translate(-128.40921,-102.8716)"
         id="path31" />
    </clipPath>
    <clipPath
       clipPathUnits="userSpaceOnUse"
       id="clipPath33">
      <path
         d="M 0,144 H 252 V 0 H 0 Z"
         transform="translate(-143.72661,-102.8716)"
         id="path33" />
    </clipPath>
    <clipPath
       clipPathUnits="userSpaceOnUse"
       id="clipPath35">
      <path
         d="M 0,144 H 252 V 0 H 0 Z"
         transform="translate(-159.4375,-102.8716)"
         id="path35" />
    </clipPath>
    <clipPath
       clipPathUnits="userSpaceOnUse"
       id="clipPath37">
      <path
         d="M 0,144 H 252 V 0 H 0 Z"
         transform="translate(-177.10551,-96.298302)"
         id="path37" />
    </clipPath>
    <clipPath
       clipPathUnits="userSpaceOnUse"
       id="clipPath39">
      <path
         d="M 0,144 H 252 V 0 H 0 Z"
         transform="translate(-187.0537,-102.9189)"
         id="path39" />
    </clipPath>
    <clipPath
       clipPathUnits="userSpaceOnUse"
       id="clipPath41">
      <path
         d="M 0,144 H 252 V 0 H 0 Z"
         transform="translate(-119.7163,-78.327102)"
         id="path41" />
    </clipPath>
    <clipPath
       clipPathUnits="userSpaceOnUse"
       id="clipPath43">
      <path
         d="M 0,144 H 252 V 0 H 0 Z"
         transform="translate(-131.6523,-72.417002)"
         id="path43" />
    </clipPath>
    <clipPath
       clipPathUnits="userSpaceOnUse"
       id="clipPath45">
      <path
         d="M 0,144 H 252 V 0 H 0 Z"
         transform="translate(-146.33691,-66.750999)"
         id="path45" />
    </clipPath>
    <clipPath
       clipPathUnits="userSpaceOnUse"
       id="clipPath47">
      <path
         d="M 0,144 H 252 V 0 H 0 Z"
         transform="translate(-159.3691,-72.154802)"
         id="path47" />
    </clipPath>
    <clipPath
       clipPathUnits="userSpaceOnUse"
       id="clipPath49">
      <path
         d="M 0,144 H 252 V 0 H 0 Z"
         transform="translate(-173.1846,-72.154802)"
         id="path49" />
    </clipPath>
    <clipPath
       clipPathUnits="userSpaceOnUse"
       id="clipPath51">
      <path
         d="M 0,144 H 252 V 0 H 0 Z"
         transform="translate(-194.3359,-72.178702)"
         id="path51" />
    </clipPath>
    <clipPath
       clipPathUnits="userSpaceOnUse"
       id="clipPath53">
      <path
         d="M 0,144 H 252 V 0 H 0 Z"
         transform="translate(-208.38871,-72.273902)"
         id="path53" />
    </clipPath>
    <clipPath
       clipPathUnits="userSpaceOnUse"
       id="clipPath55">
      <path
         d="M 0,144 H 252 V 0 H 0 Z"
         transform="translate(-217.70611,-72.226102)"
         id="path55" />
    </clipPath>
    <clipPath
       clipPathUnits="userSpaceOnUse"
       id="clipPath57">
      <path
         d="M 0,144 H 252 V 0 H 0 Z"
         transform="translate(-237.27051,-74.516602)"
         id="path57" />
    </clipPath>
  </defs>
  <sodipodi:namedview
     id="namedview1"
     pagecolor="#ffffff"
     bordercolor="#000000"
     borderopacity="0.25"
     inkscape:showpageshadow="2"
     inkscape:pageopacity="0.0"
     inkscape:pagecheckerboard="0"
     inkscape:deskcolor="#d1d1d1">
    <inkscape:page
       x="0"
       y="0"
       inkscape:label="1"
       id="page1"
       width="336"
       height="192"
       margin="10.859373 15.694667 11.202666 31.915333"
       bleed="0" />
  </sodipodi:namedview>
  <g
     id="layer-MC0"
     inkscape:groupmode="layer"
     inkscape:label="Layer 1">
    <path
       id="path1"
       d="M 0,0 55.415,51.505"
       style="fill:none;stroke:#072748;stroke-width:0.661;stroke-linecap:butt;stroke-linejoin:miter;stroke-miterlimit:4;stroke-dasharray:none;stroke-opacity:1"
       transform="matrix(1.3333333,0,0,-1.3333333,56.529333,154.7812)" />
    <path
       id="path2"
       d="M 0,0 V 72.389"
       style="fill:none;stroke:#072748;stroke-width:0.661;stroke-linecap:butt;stroke-linejoin:miter;stroke-miterlimit:4;stroke-dasharray:none;stroke-opacity:1"
       transform="matrix(1.3333333,0,0,-1.3333333,93.1856,170.59893)" />
    <path
       id="path3"
       d="M 0,0 H 78.23"
       style="fill:none;stroke:#072748;stroke-width:0.661;stroke-linecap:butt;stroke-linejoin:miter;stroke-miterlimit:4;stroke-dasharray:none;stroke-opacity:1"
       transform="matrix(1.3333333,0,0,-1.3333333,41.011067,120.6472)" />
    <path
       id="path4"
       d="M 0,0 -55.417,51.505"
       style="fill:none;stroke:#072748;stroke-width:0.661;stroke-linecap:butt;stroke-linejoin:miter;stroke-miterlimit:4;stroke-dasharray:none;stroke-opacity:1"
       transform="matrix(1.3333333,0,0,-1.3333333,129.91147,154.7812)" />
    <path
       id="path5"
       d="M 0,0 V 17.53"
       style="fill:none;stroke:#072748;stroke-width:0.661;stroke-linecap:butt;stroke-linejoin:miter;stroke-miterlimit:4;stroke-dasharray:none;stroke-opacity:1"
       transform="matrix(1.3333333,0,0,-1.3333333,93.1856,44.1224)" />
    <path
       id="path6"
       d="M 0,0 8.688,2.871 7.985,0 8.688,-2.87 Z"
       style="fill:#456087;fill-opacity:1;fill-rule:nonzero;stroke:#072748;stroke-width:0.661;stroke-linecap:butt;stroke-linejoin:miter;stroke-miterlimit:4;stroke-dasharray:none;stroke-opacity:1"
       transform="matrix(1.3333333,0,0,-1.3333333,33.320267,120.6472)" />
    <path
       id="path7"
       d="M 0,0 -8.664,2.871 -7.952,0 -8.664,-2.87 Z"
       style="fill:#456087;fill-opacity:1;fill-rule:nonzero;stroke:#072748;stroke-width:0.661;stroke-linecap:butt;stroke-linejoin:miter;stroke-miterlimit:4;stroke-dasharray:none;stroke-opacity:1"
       transform="matrix(1.3333333,0,0,-1.3333333,152.5716,120.6472)" />
    <path
       id="path8"
       d="M 0,0 2.897,8.688 0,7.955 -2.868,8.688 Z"
       style="fill:#456087;fill-opacity:1;fill-rule:nonzero;stroke:#072748;stroke-width:0.661;stroke-linecap:butt;stroke-linejoin:miter;stroke-miterlimit:4;stroke-dasharray:none;stroke-opacity:1"
       transform="matrix(1.3333333,0,0,-1.3333333,93.2168,179.74093)" />
    <path
       id="path9"
       d="M 0,0 5.079,-15.467 0,-17.299 l -5.056,1.832 z"
       style="fill:#456087;fill-opacity:1;fill-rule:nonzero;stroke:#072748;stroke-width:0.661;stroke-linecap:butt;stroke-linejoin:miter;stroke-miterlimit:4;stroke-dasharray:none;stroke-opacity:1"
       transform="matrix(1.3333333,0,0,-1.3333333,93.1856,12.6192)" />
    <path
       id="path10"
       d="m 0,0 -2.784,-0.139 -3.06,-0.434 -3.036,-0.74 -2.922,-1.066 -2.79,-1.337 -2.675,-1.617 -2.488,-1.855 -2.266,-2.133 -2.078,-2.319 -1.778,-2.513 -1.554,-2.711 -1.259,-2.811 -0.982,-2.949 -0.686,-3.037 -0.35,-3.084 -0.03,-3.088 0.27,-3.085 0.579,-3.061 0.874,-2.953 1.174,-2.899 1.477,-2.734 1.717,-2.567 1.995,-2.405 2.215,-2.154 2.404,-1.973 2.622,-1.693 2.789,-1.365 2.898,-1.146 2.976,-0.852 3.061,-0.517 3.115,-0.216 h 0.603 v 5.054 l -2.405,0.109 -2.813,0.411 -2.735,0.736 -2.652,1.039 -2.511,1.309 -2.351,1.529 -2.187,1.863 -1.939,2.049 -1.723,2.265 -1.476,2.433 -1.177,2.567 -0.872,2.704 -0.572,2.791 -0.271,2.789 0.023,2.868 0.356,2.814 0.657,2.735 0.982,2.674 1.228,2.544 1.561,2.374 1.746,2.24 2.026,1.994 2.211,1.753 2.404,1.532 2.573,1.228 2.704,0.929 2.76,0.656 2.813,0.354 L 0,-5.055"
       style="fill:#bed5ef;fill-opacity:1;fill-rule:nonzero;stroke:#072748;stroke-width:0.802;stroke-linecap:butt;stroke-linejoin:miter;stroke-miterlimit:4;stroke-dasharray:none;stroke-opacity:1"
       transform="matrix(1.3333333,0,0,-1.3333333,93.143867,81.005867)" />
    <path
       id="path11"
       d="m 0,0 2.819,-0.139 3.061,-0.434 3.029,-0.74 2.924,-1.066 2.813,-1.337 2.681,-1.617 2.457,-1.855 2.273,-2.133 2.048,-2.319 1.833,-2.513 1.529,-2.711 1.252,-2.811 0.983,-2.949 0.687,-3.037 0.325,-3.084 0.055,-3.088 -0.271,-3.085 -0.573,-3.061 -0.873,-2.953 -1.175,-2.899 -1.478,-2.734 -1.72,-2.567 -1.996,-2.405 -2.217,-2.154 -2.403,-1.973 -2.622,-1.693 -2.79,-1.365 -2.891,-1.146 -2.981,-0.852 -3.061,-0.517 -3.116,-0.216 h -0.625 v 5.054 l 2.432,0.109 2.814,0.411 2.729,0.736 2.651,1.039 2.513,1.309 2.349,1.529 2.187,1.863 1.94,2.049 1.723,2.265 1.446,2.433 1.175,2.567 0.904,2.704 0.548,2.791 0.301,2.789 -0.03,2.868 -0.356,2.814 -0.656,2.735 -0.982,2.674 -1.227,2.544 -1.562,2.374 -1.748,2.24 -2.019,1.994 -2.216,1.753 -2.428,1.532 L 9.923,-7.049 7.241,-6.12 4.458,-5.464 1.645,-5.11 0,-5.055 Z"
       style="fill:#7589ac;fill-opacity:1;fill-rule:nonzero;stroke:#072748;stroke-width:0.802;stroke-linecap:butt;stroke-linejoin:miter;stroke-miterlimit:4;stroke-dasharray:none;stroke-opacity:1"
       transform="matrix(1.3333333,0,0,-1.3333333,93.2168,81.005867)" />
    <path
       id="path12"
       d="m 0,0 -1.23,0.055 -1.746,0.38 -1.64,0.686 -1.53,0.927 -1.313,1.205 -1.09,1.391 -0.82,1.585 -0.519,1.694 -0.246,1.777 0.079,1.778 0.385,1.716 0.68,1.644 0.989,1.5 1.199,1.313 1.447,1.068 1.589,0.789 1.693,0.494 1.778,0.217 0.272,0.031 v 4.344 l -1.424,-0.084 -2.101,-0.381 -2.026,-0.656 -1.909,-0.983 -1.724,-1.205 -1.559,-1.475 -1.309,-1.694 -1.041,-1.83 -0.765,-1.995 -0.465,-2.079 -0.132,-2.103 0.164,-2.131 0.462,-2.08 0.766,-1.994 1.036,-1.825 1.314,-1.699 1.561,-1.447 1.746,-1.229 1.91,-0.958 1.994,-0.656 2.133,-0.356 L 0,-4.345 Z"
       style="fill:#7589ac;fill-opacity:1;fill-rule:nonzero;stroke:#072748;stroke-width:0.661;stroke-linecap:butt;stroke-linejoin:miter;stroke-miterlimit:4;stroke-dasharray:none;stroke-opacity:1"
       transform="matrix(1.3333333,0,0,-1.3333333,93.2168,134.4896)" />
    <path
       id="path13"
       d="m 0,0 1.258,0.078 1.748,0.357 1.639,0.686 1.53,0.958 1.313,1.174 1.089,1.414 0.82,1.562 0.52,1.724 0.222,1.771 -0.085,1.754 -0.409,1.716 -0.687,1.668 -0.982,1.507 -1.229,1.307 -1.393,1.043 -1.583,0.82 -1.724,0.487 -1.778,0.224 -0.3,-0.031 v 4.344 l 1.476,-0.053 2.079,-0.356 2.024,-0.658 1.91,-0.981 1.747,-1.205 1.505,-1.471 1.34,-1.697 1.034,-1.833 0.796,-1.995 0.434,-2.071 0.193,-2.11 L 14.345,8.007 13.88,5.928 13.084,3.904 12.05,2.079 10.735,0.41 9.205,-1.044 7.458,-2.296 5.548,-3.223 3.524,-3.91 1.445,-4.266 0,-4.345 Z"
       style="fill:#bed5ef;fill-opacity:1;fill-rule:nonzero;stroke:#072748;stroke-width:0.661;stroke-linecap:butt;stroke-linejoin:miter;stroke-miterlimit:4;stroke-dasharray:none;stroke-opacity:1"
       transform="matrix(1.3333333,0,0,-1.3333333,93.1856,134.4896)" />
    <path
       id="path14"
       d="M 0,0 -5.053,4.669 V -5.055 Z"
       style="fill:#7589ac;fill-opacity:1;fill-rule:nonzero;stroke:#072748;stroke-width:0.802;stroke-linecap:butt;stroke-linejoin:miter;stroke-miterlimit:4;stroke-dasharray:none;stroke-opacity:1"
       transform="matrix(1.3333333,0,0,-1.3333333,127.138,120.68093)" />
    <path
       id="path15"
       d="M 0,0 5.054,4.669 V -5.055 Z"
       style="fill:#7589ac;fill-opacity:1;fill-rule:nonzero;stroke:#072748;stroke-width:0.802;stroke-linecap:butt;stroke-linejoin:miter;stroke-miterlimit:4;stroke-dasharray:none;stroke-opacity:1"
       transform="matrix(1.3333333,0,0,-1.3333333,59.261067,120.68093)" />
    <path
       id="path16"
       d="m 0,0 -4.676,-5.055 h 9.73 z"
       style="fill:#7589ac;fill-opacity:1;fill-rule:nonzero;stroke:#072748;stroke-width:0.802;stroke-linecap:butt;stroke-linejoin:miter;stroke-miterlimit:4;stroke-dasharray:none;stroke-opacity:1"
       transform="matrix(1.3333333,0,0,-1.3333333,93.112667,88.001333)" />
    <path
       id="path17"
       d="m 0,0 -4.676,5.057 h 9.73 z"
       style="fill:#7589ac;fill-opacity:1;fill-rule:nonzero;stroke:#072748;stroke-width:0.802;stroke-linecap:butt;stroke-linejoin:miter;stroke-miterlimit:4;stroke-dasharray:none;stroke-opacity:1"
       transform="matrix(1.3333333,0,0,-1.3333333,93.112667,155.7708)" />
    <path
       id="path18"
       d="M 0,0 0.356,-6.856 7.134,0.138 Z"
       style="fill:#7589ac;fill-opacity:1;fill-rule:nonzero;stroke:#072748;stroke-width:0.802;stroke-linecap:butt;stroke-linejoin:miter;stroke-miterlimit:4;stroke-dasharray:none;stroke-opacity:1"
       transform="matrix(1.3333333,0,0,-1.3333333,69.2448,98.420533)" />
    <path
       id="path19"
       d="m 0,0 -6.861,0.14 6.778,6.996 z"
       style="fill:#7589ac;fill-opacity:1;fill-rule:nonzero;stroke:#072748;stroke-width:0.802;stroke-linecap:butt;stroke-linejoin:miter;stroke-miterlimit:4;stroke-dasharray:none;stroke-opacity:1"
       transform="matrix(1.3333333,0,0,-1.3333333,118.2864,144.47653)" />
    <path
       id="path20"
       d="M 0,0 -0.379,-6.86 -7.158,0.134 Z"
       style="fill:#7589ac;fill-opacity:1;fill-rule:nonzero;stroke:#072748;stroke-width:0.802;stroke-linecap:butt;stroke-linejoin:miter;stroke-miterlimit:4;stroke-dasharray:none;stroke-opacity:1"
       transform="matrix(1.3333333,0,0,-1.3333333,117.3724,98.567733)" />
    <path
       id="path21"
       d="M 0,0 6.886,0.132 0.085,7.133 Z"
       style="fill:#7589ac;fill-opacity:1;fill-rule:nonzero;stroke:#072748;stroke-width:0.802;stroke-linecap:butt;stroke-linejoin:miter;stroke-miterlimit:4;stroke-dasharray:none;stroke-opacity:1"
       transform="matrix(1.3333333,0,0,-1.3333333,68.442667,144.836)" />
    <path
       id="path22"
       d="m 0,0 v 8.451 h -0.844 c -0.675,0 -1.158,0.133 -1.449,0.399 -0.291,0.266 -0.437,0.695 -0.437,1.288 0,0.593 0.146,1.025 0.437,1.297 0.291,0.27 0.774,0.406 1.449,0.406 h 4.356 c 0.665,0 1.145,-0.136 1.442,-0.406 C 5.25,11.163 5.399,10.731 5.399,10.138 5.399,9.596 5.258,9.18 4.977,8.888 4.696,8.597 4.294,8.451 3.773,8.451 H 3.512 V -5.476 C 3.512,-5.957 3.461,-6.258 3.359,-6.381 3.256,-6.503 3.026,-6.565 2.669,-6.565 H 1.135 c -0.491,0 -0.836,0.051 -1.035,0.153 -0.2,0.102 -0.371,0.282 -0.514,0.537 L -6.795,5.337 v -8.328 h 0.89 c 0.664,0 1.14,-0.128 1.426,-0.384 0.286,-0.255 0.43,-0.68 0.43,-1.272 0,-0.604 -0.146,-1.039 -0.437,-1.304 -0.292,-0.266 -0.765,-0.399 -1.419,-0.399 h -4.402 c -0.665,0 -1.146,0.133 -1.442,0.399 -0.297,0.265 -0.445,0.7 -0.445,1.304 0,0.541 0.138,0.953 0.414,1.234 0.277,0.281 0.685,0.422 1.227,0.422 h 0.246 V 8.451 h -0.246 c -0.521,0 -0.925,0.146 -1.211,0.437 -0.287,0.292 -0.43,0.708 -0.43,1.25 0,0.593 0.151,1.025 0.453,1.297 0.301,0.27 0.779,0.406 1.434,0.406 h 2.515 c 0.604,0 1.013,-0.08 1.227,-0.238 0.215,-0.159 0.455,-0.478 0.721,-0.958 z"
       style="fill:#072748;fill-opacity:1;fill-rule:nonzero;stroke:none"
       transform="matrix(1.3333333,0,0,-1.3333333,97.5592,61.720667)"
       clip-path="url(#clipPath23)" />
    <path
       id="path24"
       d="m 0,0 c -1.024,0 -1.828,-0.414 -2.412,-1.241 -0.583,-0.827 -0.875,-1.976 -0.875,-3.447 0,-1.472 0.294,-2.625 0.881,-3.46 C -1.818,-8.983 -1.016,-9.4 0,-9.4 c 1.024,0 1.83,0.415 2.417,1.246 0.588,0.831 0.881,1.987 0.881,3.466 0,1.471 -0.292,2.62 -0.875,3.447 C 1.84,-0.414 1.032,0 0,0 m 0,2.768 c 1.955,0 3.563,-0.7 4.827,-2.1 1.263,-1.4 1.895,-3.185 1.895,-5.356 0,-2.187 -0.628,-3.977 -1.883,-5.369 -1.256,-1.391 -2.868,-2.087 -4.839,-2.087 -1.947,0 -3.556,0.702 -4.827,2.105 -1.272,1.404 -1.907,3.187 -1.907,5.351 0,2.179 0.63,3.966 1.889,5.362 C -3.586,2.07 -1.971,2.768 0,2.768"
       style="fill:#072748;fill-opacity:1;fill-rule:nonzero;stroke:none"
       transform="matrix(1.3333333,0,0,-1.3333333,115.1504,54.488267)"
       clip-path="url(#clipPath25)" />
    <path
       id="path26"
       d="m 0,0 v -3.376 h 1.61 c 0.994,0 1.69,0.129 2.088,0.388 0.398,0.258 0.596,0.69 0.596,1.294 0,0.597 -0.181,1.028 -0.543,1.295 C 3.39,-0.133 2.807,0 2.004,0 Z m 4.903,-5.082 c 0.206,-0.127 0.41,-0.358 0.608,-0.692 0.032,-0.047 0.06,-0.087 0.084,-0.119 L 7.539,-8.971 H 7.67 7.909 c 0.461,0 0.809,-0.107 1.044,-0.322 0.235,-0.215 0.352,-0.537 0.352,-0.966 0,-0.47 -0.117,-0.807 -0.352,-1.014 -0.235,-0.207 -0.622,-0.31 -1.163,-0.31 H 6.322 c -0.54,0 -0.962,0.234 -1.264,0.703 L 5.022,-10.856 2.1,-6.358 c -0.112,0.174 -0.239,0.308 -0.382,0.4 -0.143,0.091 -0.295,0.137 -0.454,0.137 H 0.143 v -3.15 h 0.191 c 0.429,0 0.753,-0.11 0.972,-0.328 0.219,-0.219 0.328,-0.539 0.328,-0.96 0,-0.47 -0.113,-0.807 -0.34,-1.014 -0.227,-0.207 -0.61,-0.31 -1.151,-0.31 h -3.078 c -0.533,0 -0.915,0.103 -1.145,0.31 -0.231,0.207 -0.346,0.544 -0.346,1.014 0,0.421 0.109,0.741 0.328,0.96 0.219,0.218 0.539,0.328 0.96,0.328 h 0.203 v 8.9 h -0.203 c -0.413,0 -0.732,0.113 -0.954,0.34 -0.223,0.226 -0.334,0.55 -0.334,0.972 0,0.461 0.117,0.797 0.352,1.008 0.234,0.21 0.614,0.316 1.139,0.316 h 5.499 c 1.686,0 2.963,-0.328 3.83,-0.984 0.867,-0.656 1.3,-1.624 1.3,-2.905 0,-0.891 -0.24,-1.662 -0.721,-2.314 -0.482,-0.653 -1.172,-1.133 -2.07,-1.444"
       style="fill:#072748;fill-opacity:1;fill-rule:nonzero;stroke:none"
       transform="matrix(1.3333333,0,0,-1.3333333,132.14653,54.7428)"
       clip-path="url(#clipPath27)" />
    <path
       id="path28"
       d="m 0,0 h -2.493 v -8.9 h 2.004 c 0.532,0 0.914,-0.103 1.145,-0.31 0.231,-0.207 0.346,-0.541 0.346,-1.002 0,-0.469 -0.115,-0.807 -0.346,-1.014 -0.231,-0.207 -0.613,-0.31 -1.145,-0.31 h -7.086 c -0.525,0 -0.903,0.103 -1.133,0.31 -0.231,0.207 -0.347,0.545 -0.347,1.014 0,0.469 0.114,0.805 0.341,1.008 0.226,0.203 0.606,0.304 1.139,0.304 h 2.004 V 0 H -8.064 L -8.136,-2.422 V -2.72 c 0,-0.382 -0.105,-0.68 -0.316,-0.895 -0.211,-0.215 -0.503,-0.322 -0.877,-0.322 -0.445,0 -0.774,0.113 -0.984,0.34 -0.211,0.227 -0.316,0.586 -0.316,1.079 v 0.096 l 0.131,3.567 c 0.024,0.708 0.121,1.133 0.292,1.276 0.171,0.143 0.519,0.215 1.044,0.215 H 1.098 C 1.623,2.636 1.97,2.564 2.142,2.421 2.313,2.278 2.414,1.853 2.446,1.145 l 0.119,-3.567 v -0.096 c 0,-0.501 -0.1,-0.862 -0.298,-1.085 C 2.068,-3.826 1.746,-3.937 1.3,-3.937 c -0.429,0 -0.737,0.109 -0.924,0.328 -0.187,0.219 -0.289,0.614 -0.304,1.187 z"
       style="fill:#072748;fill-opacity:1;fill-rule:nonzero;stroke:none"
       transform="matrix(1.3333333,0,0,-1.3333333,159.63213,54.806)"
       clip-path="url(#clipPath29)" />
    <path
       id="path30"
       d="M 0,0 V -2.744 H 3.901 V 0 H 3.71 C 3.28,0 2.952,0.111 2.726,0.334 2.499,0.557 2.386,0.883 2.386,1.312 c 0,0.469 0.117,0.807 0.351,1.014 0.235,0.207 0.623,0.31 1.164,0.31 H 6.979 C 7.52,2.636 7.903,2.533 8.13,2.326 8.356,2.119 8.47,1.781 8.47,1.312 8.47,0.883 8.36,0.557 8.142,0.334 7.923,0.111 7.603,0 7.182,0 H 6.979 v -8.899 h 0.203 c 0.428,0 0.755,-0.11 0.977,-0.329 0.223,-0.218 0.334,-0.539 0.334,-0.96 0,-0.469 -0.115,-0.807 -0.346,-1.014 -0.23,-0.207 -0.62,-0.31 -1.168,-0.31 H 3.901 c -0.548,0 -0.939,0.101 -1.17,0.304 -0.23,0.203 -0.345,0.543 -0.345,1.02 0,0.421 0.113,0.742 0.34,0.96 0.226,0.219 0.554,0.329 0.984,0.329 H 3.901 V -5.38 H 0 v -3.519 h 0.19 c 0.43,0 0.758,-0.11 0.985,-0.329 0.226,-0.218 0.34,-0.539 0.34,-0.96 0,-0.469 -0.118,-0.807 -0.352,-1.014 C 0.929,-11.409 0.54,-11.512 0,-11.512 h -3.078 c -0.549,0 -0.939,0.101 -1.169,0.304 -0.231,0.203 -0.346,0.543 -0.346,1.02 0,0.421 0.111,0.742 0.334,0.96 0.222,0.219 0.549,0.329 0.978,0.329 h 0.203 V 0 h -0.203 c -0.422,0 -0.741,0.111 -0.96,0.334 -0.219,0.223 -0.328,0.549 -0.328,0.978 0,0.469 0.113,0.807 0.34,1.014 0.227,0.207 0.61,0.31 1.151,0.31 H 0 c 0.532,0 0.919,-0.103 1.157,-0.31 C 1.396,2.119 1.515,1.781 1.515,1.312 1.515,0.883 1.401,0.557 1.175,0.334 0.948,0.111 0.62,0 0.19,0 Z"
       style="fill:#072748;fill-opacity:1;fill-rule:nonzero;stroke:none"
       transform="matrix(1.3333333,0,0,-1.3333333,171.21227,54.837867)"
       clip-path="url(#clipPath31)" />
    <path
       id="path32"
       d="m 0,0 v -8.899 h 5.428 v 2.123 c 0,0.548 0.097,0.938 0.293,1.169 0.194,0.231 0.518,0.346 0.971,0.346 0.454,0 0.784,-0.117 0.991,-0.352 0.207,-0.235 0.31,-0.622 0.31,-1.163 v -3.662 c 0,-0.43 -0.084,-0.716 -0.251,-0.859 C 7.575,-11.44 7.241,-11.512 6.74,-11.512 H -4.08 c -0.517,0 -0.887,0.103 -1.109,0.31 -0.223,0.207 -0.334,0.545 -0.334,1.014 0,0.461 0.109,0.791 0.328,0.99 0.218,0.199 0.591,0.299 1.115,0.299 h 1.051 V 0 H -4.08 c -0.517,0 -0.887,0.103 -1.109,0.31 -0.223,0.207 -0.334,0.541 -0.334,1.002 0,0.461 0.117,0.797 0.351,1.008 0.235,0.211 0.608,0.316 1.116,0.316 H 1.026 C 1.535,2.636 1.907,2.531 2.142,2.32 2.376,2.109 2.493,1.773 2.493,1.312 2.493,0.851 2.378,0.517 2.147,0.31 1.917,0.103 1.543,0 1.026,0 Z"
       style="fill:#072748;fill-opacity:1;fill-rule:nonzero;stroke:none"
       transform="matrix(1.3333333,0,0,-1.3333333,191.63547,54.837867)"
       clip-path="url(#clipPath33)" />
    <path
       id="path34"
       d="M 0,0 -1.729,-5.035 H 1.73 Z m 6.251,-8.899 h 0.203 c 0.43,0 0.756,-0.11 0.979,-0.329 0.222,-0.218 0.334,-0.539 0.334,-0.96 0,-0.469 -0.118,-0.807 -0.353,-1.014 -0.234,-0.207 -0.622,-0.31 -1.163,-0.31 H 2.66 c -0.549,0 -0.938,0.101 -1.169,0.304 -0.23,0.203 -0.345,0.543 -0.345,1.02 0,0.461 0.115,0.791 0.345,0.99 0.231,0.199 0.62,0.299 1.169,0.299 h 0.418 l -0.489,1.395 h -5.153 l -0.513,-1.395 h 0.417 c 0.541,0 0.929,-0.102 1.163,-0.305 0.234,-0.203 0.352,-0.531 0.352,-0.984 0,-0.469 -0.118,-0.807 -0.352,-1.014 -0.234,-0.207 -0.622,-0.31 -1.163,-0.31 h -3.078 c -0.549,0 -0.939,0.103 -1.169,0.31 -0.231,0.207 -0.346,0.545 -0.346,1.014 0,0.421 0.111,0.742 0.334,0.96 0.223,0.219 0.549,0.329 0.979,0.329 h 0.202 L -2.541,0 h -0.954 c -0.541,0 -0.929,0.103 -1.163,0.31 -0.235,0.207 -0.352,0.541 -0.352,1.002 0,0.469 0.117,0.807 0.352,1.014 0.234,0.207 0.622,0.31 1.163,0.31 h 4.474 c 0.708,0 1.205,-0.382 1.491,-1.145 V 1.455 Z"
       style="fill:#072748;fill-opacity:1;fill-rule:nonzero;stroke:none"
       transform="matrix(1.3333333,0,0,-1.3333333,212.58333,54.837867)"
       clip-path="url(#clipPath35)" />
    <path
       id="path36"
       d="m 0,0 v 6.573 h -0.656 c -0.526,0 -0.902,0.103 -1.128,0.31 -0.227,0.207 -0.34,0.541 -0.34,1.002 0,0.462 0.113,0.798 0.34,1.009 0.226,0.21 0.602,0.315 1.128,0.315 H 2.731 C 3.248,9.209 3.622,9.104 3.853,8.894 4.083,8.683 4.199,8.347 4.199,7.885 4.199,7.464 4.09,7.14 3.871,6.913 3.652,6.687 3.34,6.573 2.935,6.573 H 2.731 V -4.259 c 0,-0.374 -0.04,-0.608 -0.119,-0.704 C 2.532,-5.058 2.354,-5.106 2.075,-5.106 H 0.883 c -0.382,0 -0.651,0.04 -0.806,0.119 -0.155,0.08 -0.288,0.219 -0.399,0.418 l -4.963,8.72 v -6.477 h 0.692 c 0.517,0 0.887,-0.1 1.11,-0.299 0.222,-0.199 0.334,-0.529 0.334,-0.99 0,-0.469 -0.114,-0.807 -0.341,-1.014 -0.227,-0.207 -0.594,-0.31 -1.103,-0.31 h -3.424 c -0.517,0 -0.891,0.103 -1.122,0.31 -0.23,0.207 -0.345,0.545 -0.345,1.014 0,0.422 0.107,0.742 0.322,0.961 0.215,0.218 0.532,0.328 0.954,0.328 h 0.191 v 8.899 h -0.191 c -0.405,0 -0.72,0.114 -0.942,0.34 -0.223,0.227 -0.334,0.551 -0.334,0.972 0,0.462 0.117,0.798 0.351,1.009 0.235,0.21 0.607,0.315 1.116,0.315 h 1.956 c 0.469,0 0.788,-0.061 0.955,-0.185 0.167,-0.123 0.354,-0.371 0.56,-0.745 z"
       style="fill:#072748;fill-opacity:1;fill-rule:nonzero;stroke:none"
       transform="matrix(1.3333333,0,0,-1.3333333,236.14067,63.602267)"
       clip-path="url(#clipPath37)" />
    <path
       id="path38"
       d="m 0,0 v -8.947 h 0.681 c 1.503,0 2.612,0.368 3.328,1.103 0.716,0.736 1.073,1.867 1.073,3.394 0,1.504 -0.363,2.625 -1.091,3.365 C 3.263,-0.346 2.167,0.024 0.704,0.024 0.514,0.024 0.368,0.022 0.269,0.018 0.169,0.014 0.08,0.008 0,0 m -3.077,-8.947 v 8.9 H -3.28 c -0.43,0 -0.756,0.111 -0.979,0.334 -0.222,0.222 -0.334,0.548 -0.334,0.978 0,0.461 0.119,0.797 0.359,1.008 0.238,0.21 0.624,0.316 1.157,0.316 h 2.242 0.704 C 1.531,2.589 2.748,2.517 3.52,2.374 4.291,2.231 4.947,1.992 5.488,1.658 6.45,1.086 7.188,0.269 7.701,-0.793 8.214,-1.855 8.471,-3.082 8.471,-4.474 8.471,-5.945 8.178,-7.231 7.594,-8.333 7.009,-9.434 6.18,-10.267 5.106,-10.832 4.621,-11.086 4.053,-11.271 3.4,-11.387 2.748,-11.502 1.778,-11.56 0.489,-11.56 h -1.324 -2.242 c -0.549,0 -0.939,0.102 -1.169,0.305 -0.232,0.202 -0.347,0.543 -0.347,1.02 0,0.421 0.112,0.741 0.334,0.96 0.223,0.218 0.549,0.328 0.979,0.328 z"
       style="fill:#072748;fill-opacity:1;fill-rule:nonzero;stroke:none"
       transform="matrix(1.3333333,0,0,-1.3333333,249.40493,54.7748)"
       clip-path="url(#clipPath39)" />
    <path
       id="path40"
       d="m 0,0 c 0.204,0.368 0.414,0.629 0.628,0.782 0.215,0.154 0.486,0.231 0.813,0.231 0.501,0 0.857,-0.134 1.066,-0.399 0.21,-0.266 0.315,-0.721 0.315,-1.365 l 0.031,-3.988 c 0,-0.706 -0.115,-1.181 -0.346,-1.427 -0.23,-0.245 -0.646,-0.368 -1.25,-0.368 -0.429,0 -0.759,0.102 -0.989,0.307 -0.23,0.205 -0.427,0.583 -0.59,1.135 -0.266,0.971 -0.691,1.669 -1.273,2.093 -0.583,0.425 -1.391,0.637 -2.424,0.637 -1.575,0 -2.781,-0.532 -3.62,-1.595 -0.838,-1.064 -1.257,-2.603 -1.257,-4.617 0,-2.004 0.424,-3.543 1.273,-4.616 0.849,-1.075 2.06,-1.611 3.635,-1.611 1.073,0 2.257,0.358 3.55,1.073 1.294,0.716 2.11,1.075 2.447,1.075 0.399,0 0.734,-0.169 1.005,-0.507 0.271,-0.337 0.406,-0.757 0.406,-1.258 0,-0.899 -0.793,-1.748 -2.377,-2.546 -1.585,-0.798 -3.37,-1.196 -5.353,-1.196 -2.679,0 -4.847,0.885 -6.503,2.653 -1.657,1.77 -2.485,4.08 -2.485,6.933 0,2.751 0.838,5.036 2.515,6.856 1.677,1.82 3.804,2.731 6.381,2.731 0.726,0 1.442,-0.082 2.147,-0.246 C -1.549,0.604 -0.798,0.348 0,0"
       style="fill:#072748;fill-opacity:1;fill-rule:nonzero;stroke:none"
       transform="matrix(1.3333333,0,0,-1.3333333,159.62173,87.563867)"
       clip-path="url(#clipPath41)" />
    <path
       id="path42"
       d="m 0,0 c -1.024,0 -1.828,-0.414 -2.412,-1.241 -0.584,-0.826 -0.875,-1.976 -0.875,-3.447 0,-1.472 0.293,-2.625 0.881,-3.459 C -1.818,-8.982 -1.017,-9.4 0,-9.4 c 1.023,0 1.829,0.415 2.416,1.247 0.588,0.83 0.882,1.985 0.882,3.465 0,1.471 -0.292,2.621 -0.875,3.447 C 1.84,-0.414 1.031,0 0,0 m 0,2.768 c 1.954,0 3.563,-0.7 4.826,-2.1 1.264,-1.4 1.896,-3.185 1.896,-5.356 0,-2.187 -0.628,-3.977 -1.884,-5.369 -1.255,-1.391 -2.867,-2.088 -4.838,-2.088 -1.947,0 -3.557,0.703 -4.828,2.106 -1.271,1.404 -1.907,3.187 -1.907,5.351 0,2.179 0.63,3.966 1.889,5.362 1.26,1.396 2.875,2.094 4.846,2.094"
       style="fill:#072748;fill-opacity:1;fill-rule:nonzero;stroke:none"
       transform="matrix(1.3333333,0,0,-1.3333333,175.5364,95.444)"
       clip-path="url(#clipPath43)" />
    <path
       id="path44"
       d="M 0,0 2.276,6.764 C 2.419,7.209 2.617,7.533 2.872,7.736 3.126,7.938 3.464,8.04 3.885,8.04 H 5.744 C 6.285,8.04 6.673,7.937 6.907,7.73 7.142,7.523 7.259,7.185 7.259,6.716 7.259,6.287 7.146,5.96 6.919,5.738 6.692,5.515 6.364,5.404 5.935,5.404 H 5.744 l 0.346,-8.9 h 0.203 c 0.43,0 0.751,-0.109 0.966,-0.328 0.215,-0.219 0.322,-0.538 0.322,-0.96 0,-0.47 -0.113,-0.808 -0.34,-1.014 -0.226,-0.207 -0.61,-0.31 -1.151,-0.31 H 3.406 c -0.546,0 -0.932,0.101 -1.161,0.304 -0.228,0.202 -0.343,0.542 -0.343,1.02 0,0.422 0.111,0.741 0.331,0.96 0.221,0.219 0.547,0.328 0.981,0.328 H 3.406 L 3.227,3.781 1.488,-1.635 C 1.361,-2.04 1.181,-2.333 0.946,-2.512 0.712,-2.69 0.389,-2.78 -0.024,-2.78 c -0.413,0 -0.741,0.09 -0.983,0.268 -0.242,0.179 -0.427,0.472 -0.554,0.877 l -1.725,5.416 -0.168,-7.277 h 0.191 c 0.43,0 0.754,-0.109 0.972,-0.328 0.219,-0.219 0.328,-0.538 0.328,-0.96 0,-0.47 -0.115,-0.808 -0.346,-1.014 -0.23,-0.207 -0.612,-0.31 -1.145,-0.31 h -2.695 c -0.534,0 -0.915,0.103 -1.146,0.31 -0.23,0.206 -0.347,0.544 -0.347,1.014 0,0.422 0.11,0.741 0.329,0.96 0.218,0.219 0.542,0.328 0.972,0.328 h 0.192 l 0.345,8.9 h -0.191 c -0.43,0 -0.758,0.111 -0.984,0.334 -0.227,0.222 -0.34,0.549 -0.34,0.978 0,0.469 0.117,0.807 0.352,1.014 0.235,0.207 0.622,0.31 1.163,0.31 h 1.86 c 0.412,0 0.744,-0.1 0.994,-0.298 0.25,-0.199 0.455,-0.525 0.614,-0.978 z"
       style="fill:#072748;fill-opacity:1;fill-rule:nonzero;stroke:none"
       transform="matrix(1.3333333,0,0,-1.3333333,195.11587,102.99867)"
       clip-path="url(#clipPath45)" />
    <path
       id="path46"
       d="m 0,0 v -3.77 h 1.694 c 0.939,0 1.645,0.159 2.118,0.478 0.473,0.317 0.709,0.794 0.709,1.431 0,0.597 -0.244,1.056 -0.733,1.378 C 3.299,-0.161 2.601,0 1.694,0 Z M 0,-6.454 V -8.9 h 1.229 c 0.517,0 0.885,-0.1 1.104,-0.298 0.219,-0.199 0.328,-0.529 0.328,-0.99 0,-0.47 -0.112,-0.808 -0.334,-1.014 -0.223,-0.207 -0.589,-0.31 -1.098,-0.31 h -4.127 c -0.526,0 -0.901,0.103 -1.127,0.31 -0.228,0.206 -0.341,0.544 -0.341,1.014 0,0.422 0.107,0.741 0.322,0.96 0.215,0.219 0.529,0.328 0.942,0.328 h 0.204 V 0 h -0.204 c -0.405,0 -0.717,0.113 -0.936,0.34 -0.219,0.226 -0.328,0.551 -0.328,0.972 0,0.461 0.115,0.797 0.346,1.008 0.231,0.211 0.604,0.316 1.122,0.316 H 2.028 C 3.977,2.636 5.45,2.262 6.448,1.515 7.446,0.767 7.945,-0.334 7.945,-1.79 7.945,-3.325 7.448,-4.486 6.454,-5.273 5.46,-6.06 3.985,-6.454 2.028,-6.454 Z"
       style="fill:#072748;fill-opacity:1;fill-rule:nonzero;stroke:none"
       transform="matrix(1.3333333,0,0,-1.3333333,212.49213,95.7936)"
       clip-path="url(#clipPath47)" />
    <path
       id="path48"
       d="m 0,0 v -6.24 c 0,-1.105 0.192,-1.89 0.579,-2.355 0.385,-0.466 1.027,-0.698 1.926,-0.698 0.899,0 1.543,0.234 1.933,0.704 0.389,0.468 0.584,1.253 0.584,2.349 V 0 H 4.832 C 4.41,0 4.09,0.111 3.871,0.334 3.652,0.557 3.543,0.883 3.543,1.312 c 0,0.469 0.113,0.807 0.34,1.014 0.226,0.207 0.606,0.31 1.139,0.31 H 8.005 C 8.546,2.636 8.93,2.533 9.156,2.326 9.383,2.119 9.496,1.781 9.496,1.312 9.496,0.883 9.387,0.557 9.168,0.334 8.949,0.111 8.629,0 8.208,0 H 8.005 v -6.192 c 0,-2.004 -0.432,-3.453 -1.294,-4.348 -0.863,-0.895 -2.253,-1.342 -4.17,-1.342 -2.004,0 -3.441,0.439 -4.312,1.318 -0.872,0.879 -1.307,2.336 -1.307,4.372 V 0 H -3.28 c -0.43,0 -0.756,0.111 -0.979,0.334 -0.222,0.223 -0.334,0.549 -0.334,0.978 0,0.469 0.117,0.807 0.352,1.014 0.234,0.207 0.622,0.31 1.163,0.31 H 0 c 0.533,0 0.919,-0.103 1.157,-0.31 C 1.396,2.119 1.515,1.781 1.515,1.312 1.515,0.883 1.401,0.557 1.175,0.334 0.948,0.111 0.62,0 0.191,0 Z"
       style="fill:#072748;fill-opacity:1;fill-rule:nonzero;stroke:none"
       transform="matrix(1.3333333,0,0,-1.3333333,230.9128,95.7936)"
       clip-path="url(#clipPath49)" />
    <path
       id="path50"
       d="m 0,0 h -2.494 v -8.899 h 2.005 c 0.532,0 0.914,-0.104 1.144,-0.311 0.232,-0.207 0.347,-0.541 0.347,-1.002 0,-0.47 -0.115,-0.808 -0.347,-1.014 -0.23,-0.207 -0.612,-0.31 -1.144,-0.31 h -7.087 c -0.525,0 -0.903,0.103 -1.133,0.31 -0.23,0.206 -0.346,0.544 -0.346,1.014 0,0.469 0.114,0.806 0.34,1.008 0.227,0.203 0.607,0.305 1.139,0.305 h 2.005 V 0 H -8.064 L -8.137,-2.422 V -2.72 c 0,-0.382 -0.105,-0.68 -0.315,-0.895 -0.211,-0.215 -0.504,-0.322 -0.877,-0.322 -0.445,0 -0.774,0.114 -0.984,0.34 -0.211,0.227 -0.317,0.586 -0.317,1.079 v 0.096 l 0.132,3.567 c 0.023,0.708 0.121,1.133 0.292,1.276 0.171,0.143 0.518,0.215 1.044,0.215 H 1.097 C 1.622,2.636 1.97,2.564 2.141,2.421 2.312,2.278 2.413,1.853 2.445,1.145 l 0.119,-3.567 v -0.096 c 0,-0.501 -0.099,-0.863 -0.297,-1.085 -0.2,-0.223 -0.522,-0.334 -0.967,-0.334 -0.43,0 -0.737,0.109 -0.925,0.328 -0.187,0.218 -0.288,0.615 -0.304,1.187 z"
       style="fill:#072748;fill-opacity:1;fill-rule:nonzero;stroke:none"
       transform="matrix(1.3333333,0,0,-1.3333333,259.11453,95.761733)"
       clip-path="url(#clipPath51)" />
    <path
       id="path52"
       d="m 0,0 h -5.548 v -3.054 h 2.1 v 0.143 c 0,0.453 0.099,0.791 0.299,1.014 0.198,0.223 0.501,0.334 0.906,0.334 0.357,0 0.65,-0.102 0.877,-0.304 0.226,-0.203 0.34,-0.46 0.34,-0.769 0,-0.017 0.004,-0.069 0.011,-0.156 0.008,-0.087 0.012,-0.174 0.012,-0.262 v -2.469 c 0,-0.533 -0.095,-0.915 -0.286,-1.145 -0.19,-0.231 -0.501,-0.346 -0.931,-0.346 -0.405,0 -0.712,0.106 -0.918,0.321 -0.207,0.215 -0.31,0.533 -0.31,0.955 v 0.215 h -2.1 V -9.09 H 0 v 1.42 c 0,0.532 0.101,0.914 0.304,1.144 0.203,0.232 0.535,0.347 0.996,0.347 0.453,0 0.777,-0.113 0.972,-0.34 0.195,-0.228 0.292,-0.611 0.292,-1.151 v -2.888 c 0,-0.429 -0.084,-0.716 -0.251,-0.859 -0.167,-0.143 -0.497,-0.214 -0.99,-0.214 h -9.769 c -0.526,0 -0.902,0.103 -1.128,0.31 -0.227,0.206 -0.34,0.544 -0.34,1.014 0,0.422 0.107,0.741 0.322,0.96 0.215,0.219 0.529,0.328 0.943,0.328 h 0.203 v 8.9 h -0.203 c -0.406,0 -0.718,0.113 -0.937,0.34 -0.219,0.226 -0.328,0.55 -0.328,0.972 0,0.461 0.115,0.797 0.346,1.008 0.23,0.211 0.604,0.316 1.122,0.316 H 1.323 C 1.809,2.517 2.137,2.443 2.308,2.296 2.479,2.149 2.564,1.857 2.564,1.419 v -2.671 c 0,-0.541 -0.099,-0.929 -0.297,-1.164 -0.2,-0.235 -0.522,-0.352 -0.967,-0.352 -0.461,0 -0.793,0.12 -0.996,0.358 C 0.101,-2.171 0,-1.786 0,-1.252 Z"
       style="fill:#072748;fill-opacity:1;fill-rule:nonzero;stroke:none"
       transform="matrix(1.3333333,0,0,-1.3333333,277.8516,95.6348)"
       clip-path="url(#clipPath53)" />
    <path
       id="path54"
       d="m 0,0 v -3.375 h 1.61 c 0.994,0 1.69,0.128 2.088,0.387 0.398,0.258 0.597,0.69 0.597,1.294 0,0.597 -0.182,1.028 -0.543,1.295 C 3.39,-0.133 2.808,0 2.004,0 Z m 4.903,-5.082 c 0.206,-0.127 0.41,-0.358 0.609,-0.692 0.031,-0.048 0.059,-0.088 0.083,-0.119 l 1.944,-3.078 h 0.132 0.238 c 0.461,0 0.81,-0.108 1.044,-0.322 0.235,-0.214 0.352,-0.537 0.352,-0.966 0,-0.47 -0.117,-0.808 -0.352,-1.014 -0.234,-0.207 -0.623,-0.31 -1.163,-0.31 H 6.322 c -0.541,0 -0.962,0.234 -1.264,0.704 L 5.022,-10.856 2.1,-6.358 c -0.112,0.175 -0.24,0.308 -0.382,0.4 -0.144,0.09 -0.295,0.136 -0.453,0.136 H 0.143 v -3.149 h 0.191 c 0.43,0 0.753,-0.11 0.972,-0.328 0.218,-0.219 0.328,-0.538 0.328,-0.96 0,-0.47 -0.113,-0.808 -0.34,-1.014 -0.227,-0.207 -0.61,-0.31 -1.151,-0.31 h -3.078 c -0.533,0 -0.915,0.103 -1.145,0.31 -0.231,0.206 -0.346,0.544 -0.346,1.014 0,0.422 0.11,0.741 0.328,0.96 0.219,0.218 0.538,0.328 0.96,0.328 h 0.203 v 8.9 h -0.203 c -0.414,0 -0.731,0.113 -0.954,0.34 -0.222,0.226 -0.334,0.55 -0.334,0.972 0,0.461 0.117,0.797 0.352,1.008 0.234,0.21 0.614,0.316 1.139,0.316 h 5.499 c 1.687,0 2.963,-0.328 3.831,-0.984 0.866,-0.656 1.299,-1.624 1.299,-2.905 0,-0.891 -0.24,-1.663 -0.721,-2.314 -0.482,-0.653 -1.171,-1.134 -2.07,-1.444"
       style="fill:#072748;fill-opacity:1;fill-rule:nonzero;stroke:none"
       transform="matrix(1.3333333,0,0,-1.3333333,290.2748,95.698533)"
       clip-path="url(#clipPath55)" />
    <path
       id="path56"
       d="M 0,0 C 0.119,0.254 0.254,0.43 0.405,0.525 0.556,0.621 0.787,0.668 1.097,0.668 1.559,0.668 1.854,0.583 1.985,0.412 2.117,0.241 2.19,-0.1 2.206,-0.608 L 2.254,-2.899 V -3.03 c 0,-0.47 -0.093,-0.797 -0.28,-0.985 -0.187,-0.186 -0.503,-0.28 -0.949,-0.28 -0.564,0 -0.986,0.303 -1.264,0.907 -0.04,0.088 -0.072,0.159 -0.096,0.215 -0.246,0.493 -0.58,0.865 -1.002,1.115 -0.421,0.251 -0.918,0.376 -1.491,0.376 -0.716,0 -1.294,-0.165 -1.735,-0.495 -0.442,-0.33 -0.663,-0.754 -0.663,-1.271 0,-0.732 1.01,-1.308 3.031,-1.73 0.341,-0.071 0.612,-0.127 0.81,-0.167 1.528,-0.334 2.633,-0.843 3.317,-1.526 0.684,-0.685 1.026,-1.619 1.026,-2.804 0,-1.464 -0.497,-2.591 -1.491,-3.382 -0.994,-0.792 -2.418,-1.187 -4.271,-1.187 -0.723,0 -1.37,0.048 -1.938,0.143 -0.57,0.096 -1.12,0.243 -1.653,0.442 -0.127,-0.207 -0.274,-0.356 -0.441,-0.447 -0.167,-0.092 -0.398,-0.138 -0.692,-0.138 -0.501,0 -0.851,0.096 -1.05,0.286 -0.198,0.191 -0.302,0.529 -0.31,1.015 l -0.048,2.803 v 0.131 c 0,0.525 0.097,0.891 0.292,1.098 0.196,0.206 0.536,0.309 1.021,0.309 0.517,0 0.95,-0.373 1.3,-1.121 0.079,-0.182 0.143,-0.322 0.191,-0.417 0.31,-0.613 0.741,-1.07 1.294,-1.372 0.553,-0.302 1.231,-0.453 2.034,-0.453 0.732,0 1.3,0.151 1.706,0.453 0.406,0.302 0.609,0.728 0.609,1.277 0,0.85 -0.919,1.495 -2.756,1.932 -0.549,0.127 -0.983,0.235 -1.301,0.323 -1.543,0.405 -2.612,0.912 -3.209,1.52 -0.597,0.608 -0.894,1.441 -0.894,2.499 0,1.36 0.51,2.472 1.533,3.335 1.021,0.863 2.344,1.294 3.967,1.294 0.54,0 1.071,-0.056 1.591,-0.167 C -1.036,0.39 -0.518,0.223 0,0"
       style="fill:#072748;fill-opacity:1;fill-rule:nonzero;stroke:none"
       transform="matrix(1.3333333,0,0,-1.3333333,316.36067,92.644533)"
       clip-path="url(#clipPath57)" />
  </g>
</svg>
