<svg xmlns="http://www.w3.org/2000/svg" width="1200" height="630" viewBox="0 0 1200 630">
<defs><radialGradient id="a" cx="20%" cy="20%" r="60%"><stop offset="0" stop-color="#1BA8FF" stop-opacity=".55"/><stop offset="1" stop-color="#06172F" stop-opacity="0"/></radialGradient><radialGradient id="b" cx="85%" cy="75%" r="55%"><stop offset="0" stop-color="#16E0A8" stop-opacity=".28"/><stop offset="1" stop-color="#06172F" stop-opacity="0"/></radialGradient></defs><rect width="1200" height="630" fill="#06172F"/><rect width="1200" height="630" fill="url(#a)"/><rect width="1200" height="630" fill="url(#b)"/><g transform="translate(135 150)" stroke-linecap="round" stroke-linejoin="round"><circle r="72" fill="none" stroke="#51D6FF" stroke-width="8"/><circle r="38" fill="none" stroke="#fff" stroke-width="5"/><path d="M0-105V-72M0 72v33M-105 0h33M72 0h33" stroke="#fff" stroke-width="5"/><path d="M0-95 18-18 0-28-18-18zM0 95 18 18 0 28-18 18zM-95 0l77-18-10 18 10 18zM95 0 18-18l10 18-10 18z" fill="#51D6FF"/><circle r="7" fill="#fff"/></g><text x="270" y="180" font-family="Arial, sans-serif" font-size="72" font-weight="800" fill="#fff">Northland Computers</text><text x="274" y="250" font-family="Arial, sans-serif" font-size="34" font-weight="700" fill="#51D6FF">Managed IT • Cybersecurity • Website Management</text><text x="274" y="335" font-family="Arial, sans-serif" font-size="29" fill="#E2E8F0">Practical technology support for schools, veterinary hospitals,</text><text x="274" y="375" font-family="Arial, sans-serif" font-size="29" fill="#E2E8F0">dental practices, small businesses, and local organizations.</text><rect x="274" y="455" width="350" height="70" rx="35" fill="#1BA8FF"/><text x="314" y="501" font-family="Arial, sans-serif" font-size="27" font-weight="700" fill="#fff">Schedule a Consultation</text></svg>
